# xmcd
#
# Track frame offsets:
#	150
#	26828
#	56002
#	93420
#	113809
#	149082
#	175820
#	217327
#
# Disc length: 3269
#
# Revision: 1
# Processed by: cddbd v1.5.1PL0 Copyright (c) Steve Scherf et al.
# Submitted via: CDex 1.50
# Normalized: r0:TRMNUM
#
DISCID=7c0cc308
DTITLE=心中的秘密 - 浪漫爵士鋼琴三重奏 - Romantic Jazz I Love-Ballad Night-Romantic Jazz Piano Trio
DYEAR=2004
DGENRE=Jazz
TTITLE0=Manhattan –Claude Williamson Trio
TTITLE1=You Don’t Know What Love Is –John Hicks Trio
TTITLE2=For Heaven’s Sake –Denny Zeitlin Trio
TTITLE3=Star Close Lovers –Claude Williamson Trio
TTITLE4=I Fall In Love Too Easily –Denny Zeitlin Trio
TTITLE5=Embraceable You - Claude Williamson Trio
TTITLE6=The Masquerade Is Over –Walter Bishop Jr. Trio
TTITLE7=Born To Be Blue –Richard Wyands Trio
EXTD=YEAR: 2004
EXTT0=
EXTT1=
EXTT2=
EXTT3=
EXTT4=
EXTT5=
EXTT6=
EXTT7=
PLAYORDER=
